<svg width="127" height="138" viewBox="0 0 127 138" fill="none" xmlns="http://www.w3.org/2000/svg">
<g style="mix-blend-mode:darken">
<g style="mix-blend-mode:darken">
<path d="M39.4052 10.0405C37.633 9.76371 37.5583 9.73125 38.3922 9.60216C39.9905 9.35466 43.7644 9.692 46.365 10.3146C52.4362 11.7679 57.9606 15.4907 63.8577 22.1024L65.4243 23.8589L67.6655 23.4961C77.1072 21.9681 86.7122 23.1825 94.7459 26.9197C96.9559 27.9478 100.441 29.9945 100.876 30.5204C101.015 30.688 101.269 31.767 101.442 32.9183C102.038 36.9015 101.74 39.9546 100.53 42.235C99.8717 43.4759 99.835 43.8692 100.278 44.9312C100.631 45.7787 101.616 46.4059 102.592 46.4046C104.588 46.4018 106.737 43.152 107.732 38.63L108.128 36.8339L108.911 37.7275C113.209 42.6305 116.584 49.3171 117.164 54.0766L117.315 55.3176L116.593 54.1895C115.35 52.2482 114.1 50.9268 112.501 49.8609C109.617 47.9397 106.569 47.2859 98.4949 46.8574C91.2024 46.4705 87.0752 45.8432 82.9828 44.4994C76.02 42.2134 72.51 39.1688 64.239 28.2414C60.5653 23.3878 58.2947 20.7024 56.036 18.5398C50.9037 13.6259 45.8607 11.0488 39.4052 10.0405Z" fill="#828282"/>
</g>
<g style="mix-blend-mode:darken">
<path d="M102.52 20.8771C102.704 17.6248 103.141 15.4796 104.022 13.5204C104.371 12.745 104.697 12.1104 104.748 12.1104C104.798 12.1104 104.646 12.6827 104.411 13.3822C103.771 15.2834 103.665 17.884 104.106 20.9097C104.666 24.7487 104.984 25.3026 109.014 29.4495C110.904 31.3947 113.102 33.8478 113.899 34.9011L115.348 36.8162L113.899 35.4476C112.127 33.7738 108.052 30.5098 107.152 30.0431C106.548 29.7302 106.458 29.7357 106.086 30.1088C105.743 30.4527 105.671 30.9693 105.623 33.412C105.549 37.219 105.034 39.6625 103.79 42.1057C103.118 43.4272 103.011 43.1451 103.62 41.6536C104.074 40.5399 104.12 40.0503 104.117 36.365C104.11 28.9602 103.237 27.18 98.1181 24.1304C96.8213 23.3579 94.6839 22.2438 93.3691 21.6545C92.0543 21.0651 91.0099 20.5518 91.0479 20.5134C91.1928 20.3682 96.1852 21.8356 98.1953 22.6141C101.185 23.7719 101.678 23.922 102.04 23.7823C102.284 23.6886 102.402 22.975 102.52 20.8771Z" fill="#828282"/>
</g>
<g style="mix-blend-mode:darken">
<path d="M42.8476 33.5437C39.2499 28.5558 37.0238 20.9083 37.5057 15.1915L37.6547 13.4224L38.4737 13.5728C40.0116 13.8553 42.6633 14.8492 43.9049 15.6086C47.3123 17.6925 48.7875 20.4361 50.2882 27.4812C50.7278 29.5448 51.3046 31.88 51.57 32.6706C51.9972 33.9431 53.6116 36.9155 54.9242 38.8458C55.8696 40.2362 55.2416 40.895 53.1517 40.705C49.96 40.4149 45.6367 37.4103 42.8476 33.5437Z" fill="#828282"/>
</g>
<g style="mix-blend-mode:darken">
<path d="M98.1558 70.6647C81.3426 63.8477 75.4209 57.9304 75.4209 47.9463C75.4209 46.477 75.4711 45.2749 75.5323 45.2749C75.5936 45.2749 76.2441 45.7598 76.9779 46.3525C80.3873 49.1063 84.2052 50.2824 94.7744 51.8352C100.994 52.7489 104.494 53.487 107.723 54.5652C117.985 57.9925 124.334 64.9476 125.849 74.4208C126.289 77.1735 126.031 82.3355 125.317 85.0561C124.755 87.205 123.036 91.0782 122.579 91.2272C122.453 91.2683 122.33 90.7803 122.297 90.1166C122.124 86.5594 120.339 83.0963 117.341 80.5022C113.933 77.5528 109.354 75.2045 98.1558 70.6647Z" fill="#828282"/>
</g>
<g style="mix-blend-mode:darken">
<path d="M86.3527 73.4981C86.1419 72.2357 85.7766 70.6235 85.5407 69.9155L85.1117 68.6284L85.9085 69.529C87.0113 70.7754 87.8827 72.3703 88.6212 74.4946C89.1849 76.1159 89.2483 76.5981 89.2441 79.2327C89.2398 81.8192 89.1693 82.3615 88.6489 83.8207C87.8282 86.122 86.8095 87.7537 85.1004 89.5051C82.0291 92.6531 78.0803 94.3957 72.3821 95.1185C71.3917 95.2436 68.5048 95.4555 65.9668 95.5883C59.5707 95.9234 55.361 96.6157 51.5784 97.9534C51.0346 98.1453 50.549 98.2627 50.4997 98.2131C50.3466 98.0594 52.9221 96.5135 55.0493 95.4813C58.0487 94.0262 61.0345 93.2327 67.7244 92.1108C71.029 91.556 74.4418 90.8838 75.3084 90.6164C83.4923 88.0896 87.699 81.5691 86.3527 73.4981Z" fill="#828282"/>
</g>
<g style="mix-blend-mode:darken">
<path d="M94.0611 87.2826C91.8272 82.4468 91.3142 77.7778 92.5382 73.4235C92.6692 72.9582 92.8796 72.5774 93.0063 72.5774C93.1328 72.5774 93.66 72.8643 94.1775 73.2149C95.2072 73.9128 97.272 75.0881 102.772 78.1081C109.636 81.8765 113.549 84.7944 116.211 88.1282C118.541 91.0476 119.983 94.3733 120.678 98.4284C121.071 100.725 120.84 106.251 120.255 108.564C118.409 115.857 114.12 121.585 108.003 124.928C107.107 125.418 106.302 125.82 106.215 125.822C106.128 125.823 106.455 124.987 106.941 123.963C108.998 119.631 109.233 115.418 107.677 110.728C106.724 107.855 104.782 104.351 100.861 98.4284C96.3004 91.5432 95.1827 89.7108 94.0611 87.2826Z" fill="#828282"/>
</g>
<g style="mix-blend-mode:darken">
<path d="M30.9074 113.373C37.1467 108.068 44.9101 104.299 51.9816 103.142C55.0293 102.643 60.1063 102.841 62.9284 103.568C67.4521 104.734 71.4987 107.346 73.6032 110.457C75.66 113.497 76.5423 116.146 77.461 122.041C77.8235 124.367 78.2176 126.702 78.3369 127.231C79.0268 130.286 80.3694 132.728 82.0331 133.955C84.6755 135.903 89.2257 136.023 93.7019 134.265C94.4616 133.966 95.121 133.76 95.1672 133.807C95.3302 133.969 93.0758 135.488 91.4858 136.288C89.3461 137.365 87.6448 137.781 85.3841 137.781C81.2846 137.781 77.881 135.681 75.041 131.399C74.482 130.556 73.2259 128.032 72.2495 125.789C69.2508 118.902 67.7702 116.804 64.2885 114.508C61.2586 112.51 57.351 112.152 54.4115 113.604C50.55 115.51 49.4726 120.479 52.2383 123.628C53.3375 124.88 55.3872 125.959 57.0633 126.169C60.199 126.563 62.8937 124.16 62.8937 120.972C62.8937 118.902 62.1036 117.721 60.1147 116.817C57.3981 115.582 54.4781 117.025 54.492 119.595C54.4981 120.691 54.9719 121.379 56.0628 121.876C56.7626 122.195 56.7788 122.22 56.2082 122.101C53.7157 121.58 53.1318 118.554 55.1358 116.545C57.542 114.135 62.5173 115.198 64.2259 118.49C64.9438 119.873 65.0271 122.627 64.4012 124.289C63.0007 128.011 58.9169 129.968 54.7741 128.903C51.9536 128.177 50.805 127.392 47.4044 123.865C41.4953 117.735 39.2013 116.547 30.6823 115.209L29.0498 114.952L30.9074 113.373Z" fill="#828282"/>
</g>
<g style="mix-blend-mode:darken">
<path fill-rule="evenodd" clip-rule="evenodd" d="M3.18066 3.66639C22.9145 27.7852 36.5062 37.7361 38.0166 39.8385C39.2637 41.5744 38.7944 43.1351 36.6579 44.3582C35.4698 45.0383 33.0272 45.7273 31.8042 45.7273C30.421 45.7273 29.946 45.19 29.946 45.19C29.144 44.4239 28.6923 44.5579 24.5736 37.1959C18.8556 28.2611 14.0703 20.8494 13.9398 20.7252C13.6379 20.4383 13.6431 20.448 23.9906 39.092C25.6625 42.9778 24.3231 44.4043 24.3231 44.9577C24.3231 46.0835 24.0182 46.6753 22.6389 48.2245C20.3397 50.8074 19.3119 53.7096 18.57 59.716C17.7383 66.4491 15.3994 71.2052 8.91782 79.3453C5.12372 84.1103 4.50289 84.9837 3.54553 86.9041C2.33966 89.3226 2.00809 90.6772 1.8737 93.7308C1.73166 96.9601 2.0083 99.0464 2.98794 102.133C3.84559 104.836 4.74082 106.621 7.02943 110.19C9.00448 113.27 10.1417 115.56 10.1417 116.456C10.1417 117.168 10.2768 117.169 13.3373 116.473C20.6615 114.808 26.6087 111.878 29.9534 108.288C32.0235 106.066 32.5095 104.839 32.5252 101.795C32.5356 99.8036 32.4661 99.3863 31.9314 98.2405C31.0612 96.3757 29.4769 94.8251 25.9851 92.4218C21.4099 89.2721 19.4557 86.7365 18.916 83.2495C18.4732 80.3883 18.9869 78.3696 21.5179 73.0277C24.1377 67.4984 24.7869 65.1422 25.2261 59.5689C25.5097 55.9681 25.9025 54.5481 26.9298 53.4082C28.0014 52.2196 28.9659 51.8171 31.6176 51.4522C35.9407 50.8576 38.6935 49.7313 40.9563 47.6316C42.9191 45.8101 43.7405 44.055 43.8665 41.4129L43.9623 39.4103L42.8653 38.1224C38.8929 33.4583 0.520387 0 0.275926 0C0.223702 0 1.53089 1.64998 3.18066 3.66639ZM12.3716 97.385C13.2697 95.7828 12.7925 93.7242 11.2902 92.7178C9.87073 91.7677 7.66558 92.2155 7.66558 93.4539C7.66558 93.8321 7.87313 94.107 8.34089 94.3496C9.12853 94.7573 9.1857 95.2166 8.56599 96.1542C7.93841 97.1043 7.98905 97.9397 8.70893 98.5069C9.86913 99.4216 11.5115 98.9184 12.3716 97.385Z" fill="#828282"/>
</g>
<g style="mix-blend-mode:darken">
<path fill-rule="evenodd" clip-rule="evenodd" d="M46.6905 52.5037C44.661 53.1314 42.6881 55.2974 42.0774 57.5686C41.7049 58.9542 41.9163 61.3846 42.4743 62.1352C43.3758 63.3476 44.2476 63.667 46.6083 63.6503C51.2301 63.6178 55.248 61.6217 55.7151 59.1263C56.098 57.0808 54.3334 54.246 51.9027 53.0014C50.6484 52.3595 47.981 52.1048 46.6905 52.5037ZM52.0933 56.7582C52.8061 55.7383 52.4942 54.6361 51.2821 53.8907C48.9737 52.4712 45.4828 53.6459 45.4828 55.8419C45.4828 56.935 47.3032 58.1277 48.9719 58.1277C50.0825 58.1277 51.6024 57.4607 52.0933 56.7582Z" fill="#828282"/>
</g>
</g>
</svg>
